<?xml version="1.0" encoding="UTF-8" standalone="no"?>
<svg
   viewBox="0 0 32 32"
   version="1.1"
   id="svg1"
   sodipodi:docname="favicon.svg"
   inkscape:version="1.4.3 (0d15f75042, 2025-12-25)"
   xmlns:inkscape="http://www.inkscape.org/namespaces/inkscape"
   xmlns:sodipodi="http://sodipodi.sourceforge.net/DTD/sodipodi-0.dtd"
   xmlns="http://www.w3.org/2000/svg"
   xmlns:svg="http://www.w3.org/2000/svg">
  <defs
     id="defs1" />
  <sodipodi:namedview
     id="namedview1"
     pagecolor="#ffffff"
     bordercolor="#000000"
     borderopacity="0.25"
     inkscape:showpageshadow="2"
     inkscape:pageopacity="0.0"
     inkscape:pagecheckerboard="0"
     inkscape:deskcolor="#d1d1d1"
     inkscape:zoom="19.506348"
     inkscape:cx="17.225162"
     inkscape:cy="17.122631"
     inkscape:window-width="1920"
     inkscape:window-height="1131"
     inkscape:window-x="0"
     inkscape:window-y="0"
     inkscape:window-maximized="1"
     inkscape:current-layer="svg1" />
  <path
     d="M 7,0 C 3.122,0 0,3.122 0,7 v 18 c 0,3.878 3.122,7 7,7 h 18 c 3.878,0 7,-3.122 7,-7 V 7 C 32,3.122 28.878,0 25,0 Z M 9.5742188,6.7519531 A 1.250125,1.250125 0 0 1 10.728516,7.7695312 L 12.626953,17.890625 14.28125,10.71875 a 1.250125,1.250125 0 0 1 2.423828,-0.05273 l 1.740234,6.263671 0.994141,-1.591796 A 1.250125,1.250125 0 0 1 20.5,14.75 H 30 A 1.25,1.25 0 0 1 31.25,16 1.25,1.25 0 0 1 30,17.25 h -8.806641 l -2.132812,3.412109 A 1.250125,1.250125 0 0 1 16.794922,20.333984 L 15.611328,16.076172 13.71875,24.28125 a 1.250125,1.250125 0 0 1 -2.447266,-0.05078 L 9.1972656,13.164063 8.1933594,16.373047 A 1.250125,1.250125 0 0 1 7,17.25 H 2 A 1.25,1.25 0 0 1 0.75,16 1.25,1.25 0 0 1 2,14.75 H 6.0800781 L 8.3066406,7.6269531 a 1.250125,1.250125 0 0 1 1.2675782,-0.875 z"
     style="fill:#ee7f00"
     id="path1" />
</svg>
